PathFileType	4	(X/Y/Z)	C:\Users\Biomechanik\SynologyDrive\AlexP\Athlete_03\Athlete_3_22_07_06\sq_80_EMG\marker_experimental.trc																																																																																																																																																																												
DataRate	CameraRate	NumFrames	NumMarkers	Units	OrigDataRate	OrigDataStartFrame	OrigNumFrames																																																																																																																																																																								
200	200	4	58	mm	200	876	1403																																																																																																																																																																								
Frame#	Time	BL			BR			GLAB			RFHD			LFHD			C7			T6			SPINMOL			SPINM2			SPINM3			T12			BELTOL			BELT2			BELT3			SACROL			SACR2			SACR3			LTHOL			LTH2			LTH3			LSHAOL			LSHA2			LSHA3			LHEE			LTOE			LM5			RTHOL			RTH2			RTH3			RSHAOL			RSHA2			RSHA3			RHEE			RTOE			RM5			STRN			XIPH			LACR			LUAOL			LUA2			LUA3			LLAOL			LLA2			LLA3			LWRU			RACR			RUAOL			RUA3			RLAOL			RLA2			RLA3			RWRU			USERMO0			USERMO1			USERMO2			USERMO3			USERMO4			USERMO5		
		X1	Y1	Z1	X2	Y2	Z2	X3	Y3	Z3	X4	Y4	Z4	X5	Y5	Z5	X6	Y6	Z6	X7	Y7	Z7	X8	Y8	Z8	X9	Y9	Z9	X10	Y10	Z10	X11	Y11	Z11	X12	Y12	Z12	X13	Y13	Z13	X14	Y14	Z14	X15	Y15	Z15	X16	Y16	Z16	X17	Y17	Z17	X18	Y18	Z18	X19	Y19	Z19	X20	Y20	Z20	X21	Y21	Z21	X22	Y22	Z22	X23	Y23	Z23	X24	Y24	Z24	X25	Y25	Z25	X26	Y26	Z26	X27	Y27	Z27	X28	Y28	Z28	X29	Y29	Z29	X30	Y30	Z30	X31	Y31	Z31	X32	Y32	Z32	X33	Y33	Z33	X34	Y34	Z34	X35	Y35	Z35	X36	Y36	Z36	X37	Y37	Z37	X38	Y38	Z38	X39	Y39	Z39	X40	Y40	Z40	X41	Y41	Z41	X42	Y42	Z42	X43	Y43	Z43	X44	Y44	Z44	X45	Y45	Z45	X46	Y46	Z46	X47	Y47	Z47	X48	Y48	Z48	X49	Y49	Z49	X50	Y50	Z50	X51	Y51	Z51	X52	Y52	Z52	X53	Y53	Z53	X54	Y54	Z54	X55	Y55	Z55	X56	Y56	Z56	X57	Y57	Z57	X58	Y58	Z58
																																																																																																																																																																															
877	4.38	206.4914093	805.9898071	-2271.262939	325.5724182	828.0302124	-52.64079285	598.2105103	995.7424316	-1144.965698	533.4666748	1010.321472	-1071.221191	539.5115356	1007.540894	-1227.942261	360.9467468	916.7242432	-1144.279785	209.8367462	809.5344849	-1150.319824	189.5884399	794.3093872	-1159.363892	141.6415863	757.8682861	-1107.196167	149.6689301	747.1522217	-1155.213867	128.1248016	720.0458984	-1150.27124	91.78125763	727.9214478	-1147.288818	50.31455994	684.597168	-1094.535278	44.68140411	687.3208008	-1144.349731	-10.89260197	616.3016357	-1171.381592	1.485794544	621.3951416	-1121.953613	-48.05599976	578.3594971	-1131.88855	104.5177155	521.4382935	-1426.4104	126.6170273	455.0489197	-1465.790527	149.6541748	499.8349304	-1463.25293	244.9293671	308.1901855	-1595.448975	190.6265259	252.6442108	-1580.961426	238.0081329	246.4992523	-1594.78064	120.7090683	43.30730438	-1507.193237	323.7675171	47.63999176	-1551.745361	265.2227478	25.25954437	-1649.844238	116.2318268	494.7825012	-860.670105	179.1188049	521.1027832	-820.4118042	157.9503479	475.9511108	-818.4487305	207.3218842	300.3613892	-724.6010132	222.6088104	222.8610687	-720.4313965	182.9830933	246.2177734	-741.1262817	97.27323151	46.81428146	-848.8580933	284.9613342	45.079319	-765.9509277	216.2815094	36.49624634	-682.9012451	442.0236206	763.7155762	-1161.014038	393.4404297	607.6091309	-1155.674927	325.7556458	857.7626343	-1343.512085	188.2621765	778.7687378	-1376.805908	146.4446716	744.00354	-1339.097168	151.160553	736.8847656	-1388.45105	134.9781494	702.2344971	-1461.396973	180.7496643	715.5678711	-1505.228516	178.2310181	748.4060059	-1467.25	228.0875854	789.1444702	-1517.524658	350.3166809	855.0522461	-966.1585083	226.0591431	755.0777588	-913.1377563	167.0732727	736.1082153	-913.1801147	182.2752686	720.3486938	-834.9702148	227.3787994	764.6478271	-848.3981934	226.636322	748.4675903	-799.7249146	260.0765076	788.9632568	-786.6003418	0.319784999	0.082389198	-0.304497987	0.252169013	0.078564003	-0.034994598	0.0311736	0.0229057	-0.030495699	0.051512498	0.191079006	-0.727087021	0.384048998	2.902849913	-0.361512005	2.913310051	0	0
878	4.385	206.5247192	804.5440063	-2271.281006	325.9025269	826.0488281	-52.67145538	598.333313	994.0131226	-1144.936157	533.6106567	1008.507568	-1071.15271	539.605896	1005.886658	-1227.893555	361.0634766	914.998291	-1144.29126	209.9247894	807.8249512	-1150.363037	189.6891174	792.5924072	-1159.411499	141.7464294	756.1656494	-1107.229248	149.7614288	745.442627	-1155.248901	128.2358246	718.3683472	-1150.268311	91.95700836	726.2781982	-1147.321899	50.51689911	682.9477539	-1094.554565	44.86936188	685.6659546	-1144.367432	-10.68463898	614.3519897	-1171.368408	1.626679897	619.5101929	-1121.939331	-47.83794785	576.3959351	-1131.873779	104.5778275	520.1637573	-1426.294434	126.919075	453.9068298	-1465.759766	149.8178101	498.7467651	-1463.141479	245.2078552	308.1168213	-1595.424316	190.8587036	252.6239929	-1580.9104	238.2307281	246.4313507	-1594.743408	120.7486877	43.33631516	-1507.14856	323.7850342	47.62250137	-1551.721191	265.2260132	25.27644539	-1649.829102	116.6083603	493.6399536	-860.8297119	179.4321594	520.2488403	-820.6827393	158.4082794	475.0325317	-818.5897827	207.7746124	300.2767334	-724.6887817	222.9472504	222.753952	-720.5067749	183.3619843	246.1685638	-741.2229614	97.36984253	46.84880447	-848.9430542	285.0010376	45.04732132	-765.9675293	216.3121033	36.51708984	-682.9373779	442.141571	761.9850464	-1161.090332	393.6125793	605.8779907	-1155.776001	325.8785095	856.0906372	-1343.557373	188.3708191	777.1192627	-1376.871216	146.5402222	742.3530884	-1339.167725	151.2663116	735.2488403	-1388.512817	135.0812531	700.6182251	-1461.473511	180.8609619	713.9696655	-1505.297363	178.3409119	746.7883911	-1467.304199	228.2040863	787.5413208	-1517.554688	350.4948425	853.2670288	-966.1782227	226.194458	753.3753052	-913.1577148	167.2071686	734.4187012	-913.2122192	182.4163666	718.6505127	-835.0041504	227.5568085	762.9130859	-848.4487305	226.8014221	746.7341309	-799.7616577	260.2565613	787.1987305	-786.6269531	0.318717986	0.086296797	-0.311627001	0.234160006	0.081040002	-0.0351284	0.0314634	0.021624999	-0.030665901	0.054942299	0.189502001	-0.718275011	0.387055993	2.9021101	-0.362939	2.913539886	0	0
879	4.39	206.559433	803.0945435	-2271.296631	326.2285461	824.062561	-52.70084763	598.453125	992.2928467	-1144.904175	533.7489624	1006.702148	-1071.083862	539.7011108	1004.248962	-1227.843994	361.1713562	913.2862549	-1144.314697	210.0055542	806.130249	-1150.410522	189.7849121	790.8889771	-1159.464355	141.8464508	754.4736938	-1107.269775	149.850708	743.744873	-1155.291382	128.3490143	716.6985474	-1150.283569	92.1288147	724.6431885	-1147.363159	50.71526718	681.3065186	-1094.582153	45.05426025	684.0181274	-1144.393433	-10.47953129	612.4254761	-1171.366577	1.766736627	617.644104	-1121.935791	-47.62365723	574.4553223	-1131.870605	104.6283493	518.9041138	-1426.18689	127.2058411	452.7797546	-1465.739014	149.961853	497.6754456	-1463.043823	245.4703522	308.0455627	-1595.406616	191.0766449	252.6045837	-1580.865356	238.4385529	246.3657532	-1594.714355	120.7854996	43.36264801	-1507.106445	323.8002625	47.60580826	-1551.699463	265.2269287	25.29046249	-1649.81543	116.96035	492.5085754	-860.9960938	179.7180634	519.4031982	-820.9563599	158.8371124	474.1234741	-818.7348633	208.1998444	300.1911316	-724.7709351	223.2637329	222.6469574	-720.5778198	183.7164917	246.116684	-741.3135376	97.45462799	46.87764359	-849.0198975	285.0359802	45.0165062	-765.984314	216.339859	36.53604126	-682.9703979	442.2528992	760.2705688	-1161.175293	393.7785645	604.163208	-1155.881958	325.9925537	854.4312744	-1343.608765	188.4662323	775.4887695	-1376.938965	146.6251526	740.7225342	-1339.23938	151.3575745	733.6338501	-1388.573486	135.1681824	699.0211182	-1461.55188	180.9591064	712.3879395	-1505.367065	178.4381561	745.187561	-1467.359497	228.3131104	785.9515991	-1517.583984	350.667511	851.4955444	-966.2019043	226.3205872	751.6893921	-913.1848145	167.33255	732.7443848	-913.2529907	182.5480347	716.9678345	-835.0454712	227.7284546	761.1920776	-848.5057983	226.9577637	745.0129395	-799.8032837	260.4273376	785.4441528	-786.6549683	0.315461993	0.091077603	-0.319799989	0.216719002	0.0833304	-0.0353195	0.031577699	0.020460499	-0.0307508	0.058778901	0.188056007	-0.708420992	0.390547991	2.901410103	-0.363548011	2.91373992	0	0
880	4.395	206.5947723	801.6414795	-2271.30957	326.5498962	822.071228	-52.72904968	598.5696411	990.5852661	-1144.872192	533.8812866	1004.910645	-1071.017456	539.7970581	1002.627991	-1227.796509	361.2713013	911.5897217	-1144.349365	210.0812073	804.4519043	-1150.461792	189.8769531	789.2011108	-1159.522095	141.9424896	752.7950439	-1107.317505	149.937561	742.0614014	-1155.341064	128.4649658	715.0400391	-1150.315796	92.29729462	723.0195313	-1147.412354	50.90975952	679.6765747	-1094.618164	45.23647308	682.3807373	-1144.428101	-10.2781229	610.5269775	-1171.376709	1.90616405	615.8006592	-1121.943237	-47.41316223	572.541626	-1131.879639	104.6698151	517.6621704	-1426.088379	127.4777069	451.6698914	-1465.728149	150.086853	496.6231079	-1462.960449	245.717453	307.9761047	-1595.396484	191.2809753	252.5856628	-1580.827026	238.6321106	246.3021088	-1594.694336	120.8193207	43.38632965	-1507.067017	323.8131409	47.58994675	-1551.680054	265.225708	25.30160141	-1649.803589	117.2877197	491.3902893	-861.1690063	179.9776001	518.5671387	-821.2329102	159.2369843	473.225769	-818.8840332	208.598587	300.105011	-724.8478394	223.559967	222.5405884	-720.6450195	184.048172	246.0623474	-741.3983154	97.52832031	46.90163803	-849.0890503	285.0665588	44.98680878	-766.0012817	216.3649139	36.55347443	-683.0006714	442.3583374	758.5739136	-1161.267944	393.9385681	602.4663696	-1155.992676	326.0986938	852.7861938	-1343.665161	188.5497131	773.8782349	-1377.009033	146.7009125	739.1131592	-1339.312256	151.4357605	732.0406494	-1388.633911	135.2410126	697.4437256	-1461.63208	181.0458679	710.8231812	-1505.4375	178.5243378	743.604126	-1467.415649	228.4154968	784.3760376	-1517.612671	350.8348694	849.739624	-966.2288818	226.4382629	750.0199585	-913.2181396	167.4501953	731.0853882	-913.3012085	182.6713867	715.3002319	-835.0935059	227.8942261	759.4851074	-848.5685425	227.1060486	743.3044434	-799.8494263	260.5895691	783.7001953	-786.6843872	0.310175002	0.096778803	-0.32870701	0.200136006	0.085221402	-0.035564899	0.031521302	0.019418299	-0.0308041	0.062923901	0.186637998	-0.697688997	0.394439012	2.900719881	-0.363301009	2.913949966	0	0
